<svg width="200" height="200" viewBox="0 0 200 200" xmlns="http://www.w3.org/2000/svg">
  <!-- Background -->
  <rect width="100%" height="100%" fill="#f0f0f0" />
  
  <!-- Tic Tac Toe grid lines -->
  <line x1="33.33" y1="0" x2="33.33" y2="100%" stroke="#333" stroke-width="4" />
  <line x1="66.66" y1="0" x2="66.66" y2="100%" stroke="#333" stroke-width="4" />
  <line x1="0" y1="33.33" x2="100%" y2="33.33" stroke="#333" stroke-width="4" />
  <line x1="0" y1="66.66" x2="100%" y2="66.66" stroke="#333" stroke-width="4" />
  
  <!-- Letter T -->
  <rect x="10" y="20" width="20" height="120" fill="#ff6347" />
  <rect x="0" y="140" width="40" height="20" fill="#ff6347" />
  
  <!-- Letter X -->
  <path d="M 110,20 L 90,40 M 110,40 L 90,20 M 90,60 L 110,80 M 90,80 L 110,60" 
        stroke="#4169e1" stroke-width="6" />
        
  <!-- Letter O -->
  <circle cx="160" cy="50" r="30" fill="#32cd32" stroke="#228b22" stroke-width="6" />
  
  <!-- Letter E -->
  <rect x="130" y="90" width="40" height="20" fill="#ffa500" />
  <rect x="130" y="110" width="40" height="20" fill="#ffa500" />
  <rect x="130" y="130" width="40" height="20" fill="#ffa500" />
  <rect x="130" y="90" width="10" height="60" fill="#ffa500" />
</svg>
